<svg width="300" height="100" xmlns="http://www.w3.org/2000/svg">
 <!-- Created with Method Draw - http://github.com/duopixel/Method-Draw/ -->

 <g>
  <title>background</title>
  <rect fill="none" id="canvas_background" height="102" width="302" y="-1" x="-1"/>
  <g display="none" overflow="visible" y="0" x="0" height="100%" width="100%" id="canvasGrid">
   <rect fill="url(#gridpattern)" stroke-width="0" y="0" x="0" height="100%" width="100%"/>
  </g>
 </g>
 <g>
  <title>Layer 1</title>
  <g id="svg_23">
   <g transform="matrix(0.16266549553742848,0,0,0.16266549553742848,0,0) " id="svg_5">
    <g id="svg_6">
     <path fill="#ffffff" id="svg_7" d="m243.838916,470.034994c-0.693,0 -1.391,-0.015 -2.09,-0.043c-12.979,-0.54 -25.361,-6.071 -34.865,-15.576c-9.504,-9.504 -15.035,-21.886 -15.576,-34.864c-0.549,-13.213 4.115,-25.456 13.133,-34.475l208.404,-208.404c11.523,-11.523 27.197,-17.483 44.096,-16.78c16.676,0.693 32.594,7.81 44.822,20.037c12.228,12.229 19.346,28.147 20.037,44.823c0.703,16.911 -5.256,32.571 -16.781,44.096l-157.044,157.046c-2.928,2.927 -7.676,2.928 -10.607,0c-2.928,-2.93 -2.928,-7.678 0,-10.608l157.045,-157.047c8.523,-8.522 12.928,-20.194 12.4,-32.865c-0.537,-12.906 -6.098,-25.279 -15.658,-34.84c-9.559,-9.56 -21.932,-15.119 -34.838,-15.656c-12.67,-0.533 -24.344,3.876 -32.865,12.399l-208.404,208.406c-12.596,12.594 -11.498,34.184 2.443,48.125c6.836,6.837 15.672,10.813 24.881,11.195c8.975,0.349 17.229,-2.734 23.244,-8.752l169.441,-169.439c7.422,-7.422 6.691,-20.229 -1.629,-28.549c-4.113,-4.114 -9.414,-6.505 -14.924,-6.733c-5.289,-0.212 -10.115,1.595 -13.625,5.106l-118.079,118.083c-2.93,2.927 -7.678,2.928 -10.607,0c-2.93,-2.93 -2.93,-7.678 0,-10.607l118.079,-118.083c6.512,-6.512 15.322,-9.9 24.855,-9.486c9.281,0.385 18.127,4.332 24.906,11.114c14.17,14.167 14.9,36.49 1.631,49.762l-169.441,169.44c-8.541,8.54 -19.974,13.175 -32.384,13.175z"/>
    </g>
   </g>
   <g transform="matrix(0.16266549553742848,0,0,0.16266549553742848,0,0) " id="svg_8"/>
   <g transform="matrix(0.16266549553742848,0,0,0.16266549553742848,0,0) " id="svg_9"/>
   <g transform="matrix(0.16266549553742848,0,0,0.16266549553742848,0,0) " id="svg_10"/>
   <g transform="matrix(0.16266549553742848,0,0,0.16266549553742848,0,0) " id="svg_11"/>
   <g transform="matrix(0.16266549553742848,0,0,0.16266549553742848,0,0) " id="svg_12"/>
   <g transform="matrix(0.16266549553742848,0,0,0.16266549553742848,0,0) " id="svg_13"/>
   <g transform="matrix(0.16266549553742848,0,0,0.16266549553742848,0,0) " id="svg_14"/>
   <g transform="matrix(0.16266549553742848,0,0,0.16266549553742848,0,0) " id="svg_15"/>
   <g transform="matrix(0.16266549553742848,0,0,0.16266549553742848,0,0) " id="svg_16"/>
   <g transform="matrix(0.16266549553742848,0,0,0.16266549553742848,0,0) " id="svg_17"/>
   <g transform="matrix(0.16266549553742848,0,0,0.16266549553742848,0,0) " id="svg_18"/>
   <g transform="matrix(0.16266549553742848,0,0,0.16266549553742848,0,0) " id="svg_19"/>
   <g transform="matrix(0.16266549553742848,0,0,0.16266549553742848,0,0) " id="svg_20"/>
   <g transform="matrix(0.16266549553742848,0,0,0.16266549553742848,0,0) " id="svg_21"/>
   <g transform="matrix(0.16266549553742848,0,0,0.16266549553742848,0,0) " id="svg_22"/>
  </g>
  <text xml:space="preserve" text-anchor="start" font-family="'Trebuchet MS', Gadget, sans-serif" font-size="43" id="svg_24" y="66" x="98.5" stroke-width="0" stroke="#000" fill="#ffffff">Grampos</text>
 </g>
</svg>